<svg xmlns="http://www.w3.org/2000/svg" xmlns:xlink="http://www.w3.org/1999/xlink" width="247" zoomAndPan="magnify" viewBox="0 0 185.25 30.000001" height="40" preserveAspectRatio="xMidYMid meet" version="1.0"><defs><g/></defs><path fill="#ff1616" d="M 24.324219 9.226562 C 21.347656 4.03125 14.746094 2.300781 9.550781 5.277344 C 4.355469 8.253906 2.625 14.855469 5.601562 20.050781 C 8.578125 25.246094 15.234375 26.980469 20.375 24.003906 C 25.570312 21.027344 27.300781 14.421875 24.324219 9.226562 Z M 19.292969 22.164062 C 15.125 24.542969 9.875 23.136719 7.441406 18.96875 C 5.058594 14.855469 6.519531 9.554688 10.632812 7.117188 C 14.800781 4.738281 20.050781 6.144531 22.484375 10.3125 C 24.867188 14.476562 23.460938 19.726562 19.292969 22.164062 Z M 18.859375 14.207031 L 13.179688 10.90625 C 12.527344 10.691406 12.421875 10.796875 12.257812 11.445312 L 12.3125 17.996094 C 12.421875 18.644531 12.636719 18.753906 13.230469 18.535156 L 18.859375 15.289062 C 19.347656 14.910156 19.347656 14.585938 18.859375 14.207031 Z M 18.859375 14.207031 " fill-opacity="1" fill-rule="nonzero"/><g fill="#ffffff" fill-opacity="1"><g transform="translate(29.195766, 19.475455)"><g><path d="M 12.796875 0 L 9.359375 0 L 8.328125 -4.6875 C 8.273438 -4.882812 8.195312 -5.273438 8.09375 -5.859375 C 7.988281 -6.453125 7.910156 -6.941406 7.859375 -7.328125 C 7.828125 -7.015625 7.765625 -6.617188 7.671875 -6.140625 C 7.585938 -5.671875 7.5 -5.234375 7.40625 -4.828125 C 7.320312 -4.429688 6.96875 -2.820312 6.34375 0 L 2.890625 0 L 0.234375 -10.78125 L 3.03125 -10.78125 L 4.203125 -5.375 C 4.472656 -4.175781 4.65625 -3.222656 4.75 -2.515625 C 4.8125 -3.015625 4.925781 -3.695312 5.09375 -4.5625 C 5.257812 -5.425781 5.414062 -6.140625 5.5625 -6.703125 L 6.5 -10.78125 L 9.203125 -10.78125 L 10.125 -6.703125 C 10.28125 -6.046875 10.4375 -5.289062 10.59375 -4.4375 C 10.757812 -3.582031 10.875 -2.941406 10.9375 -2.515625 C 11 -3.066406 11.171875 -4.015625 11.453125 -5.359375 L 12.640625 -10.78125 L 15.453125 -10.78125 Z M 12.796875 0 "/></g></g></g><g fill="#ffffff" fill-opacity="1"><g transform="translate(44.879901, 19.475455)"><g><path d="M 7.78125 0 L 7.25 -2.015625 L 3.75 -2.015625 L 3.203125 0 L 0 0 L 3.515625 -10.8125 L 7.40625 -10.8125 L 10.953125 0 Z M 6.640625 -4.40625 L 6.171875 -6.171875 C 6.066406 -6.566406 5.9375 -7.078125 5.78125 -7.703125 C 5.625 -8.328125 5.519531 -8.773438 5.46875 -9.046875 C 5.425781 -8.796875 5.335938 -8.378906 5.203125 -7.796875 C 5.078125 -7.222656 4.789062 -6.09375 4.34375 -4.40625 Z M 6.640625 -4.40625 "/></g></g></g><g fill="#ffffff" fill-opacity="1"><g transform="translate(55.839638, 19.475455)"><g><path d="M 5.921875 0 L 3 0 L 3 -8.390625 L 0.375 -8.390625 L 0.375 -10.78125 L 8.546875 -10.78125 L 8.546875 -8.390625 L 5.921875 -8.390625 Z M 5.921875 0 "/></g></g></g><g fill="#ffffff" fill-opacity="1"><g transform="translate(64.757779, 19.475455)"><g><path d="M 5.96875 -8.546875 C 5.269531 -8.546875 4.726562 -8.257812 4.34375 -7.6875 C 3.957031 -7.125 3.765625 -6.34375 3.765625 -5.34375 C 3.765625 -3.269531 4.550781 -2.234375 6.125 -2.234375 C 6.601562 -2.234375 7.066406 -2.296875 7.515625 -2.421875 C 7.960938 -2.554688 8.410156 -2.71875 8.859375 -2.90625 L 8.859375 -0.453125 C 7.960938 -0.0546875 6.945312 0.140625 5.8125 0.140625 C 4.1875 0.140625 2.9375 -0.328125 2.0625 -1.265625 C 1.195312 -2.210938 0.765625 -3.578125 0.765625 -5.359375 C 0.765625 -6.472656 0.972656 -7.453125 1.390625 -8.296875 C 1.816406 -9.140625 2.421875 -9.789062 3.203125 -10.25 C 3.992188 -10.707031 4.921875 -10.9375 5.984375 -10.9375 C 7.148438 -10.9375 8.265625 -10.679688 9.328125 -10.171875 L 8.4375 -7.875 C 8.039062 -8.0625 7.640625 -8.21875 7.234375 -8.34375 C 6.835938 -8.476562 6.414062 -8.546875 5.96875 -8.546875 Z M 5.96875 -8.546875 "/></g></g></g><g fill="#ffffff" fill-opacity="1"><g transform="translate(74.552999, 19.475455)"><g><path d="M 10.40625 0 L 7.46875 0 L 7.46875 -4.390625 L 4.09375 -4.390625 L 4.09375 0 L 1.171875 0 L 1.171875 -10.78125 L 4.09375 -10.78125 L 4.09375 -6.78125 L 7.46875 -6.78125 L 7.46875 -10.78125 L 10.40625 -10.78125 Z M 10.40625 0 "/></g></g></g><g fill="#ffffff" fill-opacity="1"><g transform="translate(86.117106, 19.475455)"><g><path d="M 5.921875 0 L 3 0 L 3 -8.390625 L 0.375 -8.390625 L 0.375 -10.78125 L 8.546875 -10.78125 L 8.546875 -8.390625 L 5.921875 -8.390625 Z M 5.921875 0 "/></g></g></g><g fill="#ffffff" fill-opacity="1"><g transform="translate(95.035246, 19.475455)"><g><path d="M 4.078125 -3.921875 L 4.078125 0 L 1.171875 0 L 1.171875 -10.78125 L 4.6875 -10.78125 C 7.625 -10.78125 9.09375 -9.71875 9.09375 -7.59375 C 9.09375 -6.34375 8.484375 -5.375 7.265625 -4.6875 L 10.40625 0 L 7.09375 0 L 4.8125 -3.921875 Z M 4.078125 -6.109375 L 4.625 -6.109375 C 5.632812 -6.109375 6.140625 -6.554688 6.140625 -7.453125 C 6.140625 -8.203125 5.644531 -8.578125 4.65625 -8.578125 L 4.078125 -8.578125 Z M 4.078125 -6.109375 "/></g></g></g><g fill="#ffffff" fill-opacity="1"><g transform="translate(105.250571, 19.475455)"><g><path d="M 7.78125 0 L 7.25 -2.015625 L 3.75 -2.015625 L 3.203125 0 L 0 0 L 3.515625 -10.8125 L 7.40625 -10.8125 L 10.953125 0 Z M 6.640625 -4.40625 L 6.171875 -6.171875 C 6.066406 -6.566406 5.9375 -7.078125 5.78125 -7.703125 C 5.625 -8.328125 5.519531 -8.773438 5.46875 -9.046875 C 5.425781 -8.796875 5.335938 -8.378906 5.203125 -7.796875 C 5.078125 -7.222656 4.789062 -6.09375 4.34375 -4.40625 Z M 6.640625 -4.40625 "/></g></g></g><g fill="#ffffff" fill-opacity="1"><g transform="translate(116.210308, 19.475455)"><g><path d="M 1.171875 0 L 1.171875 -10.78125 L 4.09375 -10.78125 L 4.09375 0 Z M 1.171875 0 "/></g></g></g><g fill="#ffffff" fill-opacity="1"><g transform="translate(121.465384, 19.475455)"><g><path d="M 1.171875 0 L 1.171875 -10.78125 L 4.078125 -10.78125 L 4.078125 -2.34375 L 8.21875 -2.34375 L 8.21875 0 Z M 1.171875 0 "/></g></g></g><g fill="#ffffff" fill-opacity="1"><g transform="translate(130.250858, 19.475455)"><g><path d="M 7.5625 0 L 1.171875 0 L 1.171875 -10.78125 L 7.5625 -10.78125 L 7.5625 -8.4375 L 4.078125 -8.4375 L 4.078125 -6.75 L 7.296875 -6.75 L 7.296875 -4.40625 L 4.078125 -4.40625 L 4.078125 -2.375 L 7.5625 -2.375 Z M 7.5625 0 "/></g></g></g><g fill="#ffffff" fill-opacity="1"><g transform="translate(138.535147, 19.475455)"><g><path d="M 4.078125 -3.921875 L 4.078125 0 L 1.171875 0 L 1.171875 -10.78125 L 4.6875 -10.78125 C 7.625 -10.78125 9.09375 -9.71875 9.09375 -7.59375 C 9.09375 -6.34375 8.484375 -5.375 7.265625 -4.6875 L 10.40625 0 L 7.09375 0 L 4.8125 -3.921875 Z M 4.078125 -6.109375 L 4.625 -6.109375 C 5.632812 -6.109375 6.140625 -6.554688 6.140625 -7.453125 C 6.140625 -8.203125 5.644531 -8.578125 4.65625 -8.578125 L 4.078125 -8.578125 Z M 4.078125 -6.109375 "/></g></g></g><g fill="#ffffff" fill-opacity="1"><g transform="translate(155.531847, 18.909729)"><g><path d="M 10.328125 -10.78125 L 10.328125 -4.296875 C 10.328125 -2.878906 9.925781 -1.785156 9.125 -1.015625 C 8.332031 -0.242188 7.179688 0.140625 5.671875 0.140625 C 4.203125 0.140625 3.070312 -0.234375 2.28125 -0.984375 C 1.5 -1.734375 1.109375 -2.8125 1.109375 -4.21875 L 1.109375 -10.78125 L 4.03125 -10.78125 L 4.03125 -4.453125 C 4.03125 -3.691406 4.171875 -3.140625 4.453125 -2.796875 C 4.742188 -2.453125 5.164062 -2.28125 5.71875 -2.28125 C 6.3125 -2.28125 6.742188 -2.445312 7.015625 -2.78125 C 7.285156 -3.125 7.421875 -3.6875 7.421875 -4.46875 L 7.421875 -10.78125 Z M 10.328125 -10.78125 "/></g></g></g><g fill="#ffffff" fill-opacity="1"><g transform="translate(166.955911, 18.909729)"><g><path d="M 7.78125 0 L 7.25 -2.015625 L 3.75 -2.015625 L 3.203125 0 L 0 0 L 3.515625 -10.8125 L 7.40625 -10.8125 L 10.953125 0 Z M 6.640625 -4.40625 L 6.171875 -6.171875 C 6.066406 -6.566406 5.9375 -7.078125 5.78125 -7.703125 C 5.625 -8.328125 5.519531 -8.773438 5.46875 -9.046875 C 5.425781 -8.796875 5.335938 -8.378906 5.203125 -7.796875 C 5.078125 -7.222656 4.789062 -6.09375 4.34375 -4.40625 Z M 6.640625 -4.40625 "/></g></g></g><g fill="#ff1616" fill-opacity="1"><g transform="translate(150.655262, 19.563056)"><g><path d="M 0.640625 -1.21875 C 0.640625 -1.675781 0.769531 -2.023438 1.03125 -2.265625 C 1.300781 -2.515625 1.691406 -2.640625 2.203125 -2.640625 C 2.691406 -2.640625 3.066406 -2.515625 3.328125 -2.265625 C 3.585938 -2.023438 3.71875 -1.675781 3.71875 -1.21875 C 3.71875 -0.78125 3.582031 -0.4375 3.3125 -0.1875 C 3.039062 0.0625 2.671875 0.1875 2.203125 0.1875 C 1.710938 0.1875 1.328125 0.0664062 1.046875 -0.171875 C 0.773438 -0.421875 0.640625 -0.769531 0.640625 -1.21875 Z M 0.640625 -1.21875 "/></g></g></g></svg>